# xmcd CD database file
#
# Track frame offsets:
#	150
#	43809
#	65486
#	91901
#	176094
#	201035
#
# Disc length: 2855 seconds
#
# Revision: 0
# Processed by: cddbd v1.5.2PL0 Copyright (c) Steve Scherf et al.
# Submitted via: Feurio! 1.68 - http://www.feurio.com
#
DISCID=4f0b2506
DTITLE=Albert Collins - Graffiti's   Pittsburgh, PA   05-01-92   Disc 2
DYEAR=1900
DGENRE=
TTITLE0=Mind Your Own Business
TTITLE1=If You Love Me Like You Say
TTITLE2=Things I Used To Do
TTITLE3=Same Old Thing
TTITLE4=Master Charge
TTITLE5=How Sweet It Is
EXTD=
EXTT0=
EXTT1=
EXTT2=
EXTT3=
EXTT4=
EXTT5=
PLAYORDER=
